<svg width="27" height="32" viewBox="0 0 27 32" fill="none" xmlns="http://www.w3.org/2000/svg">
<path d="M0 2.91557C0 1.58149 1.08149 0.5 2.41558 0.5H8.85711V9.35711H0V2.91557Z" fill="#A65CFF"/>
<path d="M0 9.35718H8.85711V18.2143H2.41558C1.08149 18.2143 0 17.1328 0 15.7987V9.35718Z" fill="#D384FF"/>
<rect x="8.85742" y="0.5" width="8.85711" height="8.85711" fill="#7A34D8"/>
<path d="M17.7148 0.5H24.1564C25.4905 0.5 26.572 1.58149 26.572 2.91558V9.35711H17.7148V0.5Z" fill="#5B10B9"/>
<path d="M26.5742 29.0844C26.5742 30.4185 25.4927 31.5 24.1586 31.5H17.7171V22.6429H26.5742V29.0844Z" fill="#FC5194"/>
<path d="M26.5742 22.6428H17.7171V13.7857H24.1586C25.4927 13.7857 26.5742 14.8672 26.5742 16.2013V22.6428Z" fill="#FF7DB0"/>
<rect x="17.7168" y="31.5" width="8.85711" height="8.85711" transform="rotate(180 17.7168 31.5)" fill="#EC2F79"/>
<path d="M8.85938 31.5H2.41784C1.08376 31.5 0.00226784 30.4185 0.00226784 29.0844V22.6429H8.85938V31.5Z" fill="#E40059"/>
</svg>
